<svg width="18" height="18" viewBox="0 0 18 18" fill="none" xmlns="http://www.w3.org/2000/svg">
<g clip-path="url(#clip0_148_9634)">
<path d="M15.0979 6.82056H10.582C10.3879 6.82056 10.2305 6.97795 10.2305 7.17212C10.2305 7.36628 10.3879 7.52368 10.582 7.52368H13.7109V9.03539C13.7109 9.83016 13.0643 10.4768 12.2695 10.4768H5.73048C4.9357 10.4768 4.28908 9.83016 4.28908 9.03539V7.52368H7.41797C7.61214 7.52368 7.76953 7.36628 7.76953 7.17212C7.76953 6.97795 7.61214 6.82056 7.41797 6.82056H2.9021C2.70793 6.82056 2.55054 6.97795 2.55054 7.17212C2.55054 7.36628 2.70793 7.52368 2.9021 7.52368H3.58595V9.03539C3.58595 10.077 4.33253 10.9471 5.31859 11.1398L3.91572 17.5737C3.89304 17.6776 3.91871 17.7863 3.9854 17.8691C4.05212 17.952 4.15281 18.0002 4.25919 18.0002H5.78451C5.94989 18.0002 6.09287 17.8849 6.12802 17.7233L6.92839 14.0451H11.0716L11.8719 17.7233C11.9071 17.8849 12.0501 18.0002 12.2154 18.0002H13.7408C13.8471 18.0002 13.9478 17.952 14.0146 17.8691C14.0813 17.7862 14.1069 17.6776 14.0842 17.5737L12.6813 11.1398C13.6674 10.9471 14.414 10.077 14.414 9.03539V7.52368H15.0978C15.292 7.52368 15.4494 7.36628 15.4494 7.17212C15.4495 6.97795 15.2921 6.82056 15.0979 6.82056ZM5.50122 17.297H4.69566L6.02948 11.1799H6.83227L5.50122 17.297ZM7.08139 13.342L7.55185 11.1799H10.4481L10.9186 13.342H7.08139ZM12.4988 17.297L11.1677 11.1799H11.9705L13.3043 17.297H12.4988Z" fill="#696969"/>
<path d="M15.9268 4.49996C15.7326 4.49996 15.5752 4.65735 15.5752 4.85152C15.5752 5.08415 15.386 5.27339 15.1533 5.27339C14.9207 5.27339 14.7315 5.08415 14.7315 4.85152C14.7315 4.65735 14.5741 4.49996 14.3799 4.49996H13.7663C13.6183 4.05134 13.1954 3.72653 12.6979 3.72653C12.4629 3.72653 12.2447 3.79899 12.0641 3.92259C11.9391 3.80148 11.7691 3.72653 11.5816 3.72653H10.7203C10.5329 3.72653 10.3629 3.80148 10.2378 3.92259C10.0572 3.79899 9.83899 3.72653 9.60411 3.72653C9.37043 3.72653 9.1532 3.79821 8.97313 3.92066C8.84784 3.79793 8.67659 3.72196 8.48777 3.72196H7.62644C7.43765 3.72196 7.26644 3.79793 7.14115 3.92059C6.96111 3.79818 6.74388 3.72653 6.51024 3.72653C6.27655 3.72653 6.05932 3.79821 5.87925 3.92063C5.75396 3.7979 5.58271 3.72192 5.39392 3.72192H4.5326C4.14975 3.72192 3.83827 4.03341 3.83827 4.41625V4.49993H2.07501C1.88084 4.49993 1.72345 4.65732 1.72345 4.85149C1.72345 5.04565 1.88084 5.20305 2.07501 5.20305H3.83823V5.27758C3.83823 5.66042 4.14971 5.97191 4.53256 5.97191H5.39389C5.57997 5.97191 5.74879 5.89794 5.87359 5.77834C6.05479 5.90318 6.27406 5.97648 6.51024 5.97648C6.74638 5.97648 6.96565 5.90318 7.14681 5.77841C7.27158 5.89794 7.4404 5.97191 7.62644 5.97191H8.48777C8.67385 5.97191 8.84267 5.89794 8.96747 5.77834C9.14867 5.90318 9.36793 5.97648 9.60411 5.97648C9.83903 5.97648 10.0572 5.90402 10.2378 5.78041C10.3629 5.90152 10.5329 5.97648 10.7203 5.97648H11.5816C11.7691 5.97648 11.9391 5.90152 12.0641 5.78041C12.2447 5.90402 12.463 5.97648 12.6979 5.97648C13.1954 5.97648 13.6183 5.65167 13.7663 5.20305H14.0846C14.2325 5.65174 14.6557 5.97648 15.1533 5.97648C15.7737 5.97648 16.2783 5.47181 16.2783 4.85149C16.2783 4.65735 16.1209 4.49996 15.9268 4.49996ZM5.38513 5.26879H4.54139V4.42504H5.38513V5.26879ZM6.51024 5.27339C6.27761 5.27339 6.08836 5.08415 6.08836 4.85152C6.08836 4.61889 6.27761 4.42965 6.51024 4.42965C6.74286 4.42965 6.93211 4.61889 6.93211 4.85152C6.93211 5.08415 6.74286 5.27339 6.51024 5.27339ZM8.47898 5.26879H7.63523V4.42504H8.47898V5.26879ZM9.60411 5.27339C9.37149 5.27339 9.18224 5.08415 9.18224 4.85152C9.18224 4.61889 9.37149 4.42965 9.60411 4.42965C9.83674 4.42965 10.026 4.61889 10.026 4.85152C10.026 5.08415 9.83674 5.27339 9.60411 5.27339ZM11.5729 5.27339H10.7291V4.42965H11.5729V5.27339ZM12.6979 5.27339C12.4652 5.27339 12.276 5.08415 12.276 4.85152C12.276 4.61889 12.4652 4.42965 12.6979 4.42965C12.9305 4.42965 13.1197 4.61889 13.1197 4.85152C13.1197 5.08415 12.9305 5.27339 12.6979 5.27339Z" fill="#696969"/>
<path d="M11.7014 2.37115C11.6129 2.54401 11.6813 2.7558 11.8541 2.84428C11.9054 2.87051 11.9601 2.88296 12.014 2.88296C12.1418 2.88296 12.265 2.81307 12.3272 2.69149C12.5532 2.25 12.5532 1.72283 12.3272 1.28134C12.2039 1.04042 12.2039 0.752733 12.3272 0.511807C12.4157 0.338944 12.3473 0.127163 12.1744 0.0386747C12.0016 -0.0497785 11.7898 0.0186356 11.7014 0.191464C11.4754 0.632956 11.4754 1.16012 11.7014 1.60162C11.8246 1.84254 11.8246 2.13023 11.7014 2.37115Z" fill="#696969"/>
<path d="M8.69308 2.37115C8.60463 2.54401 8.67305 2.7558 8.84588 2.84428C8.89717 2.87051 8.95184 2.88296 9.00573 2.88296C9.13353 2.88296 9.25679 2.81307 9.31898 2.69149C9.54493 2.25 9.54493 1.72283 9.31898 1.28134C9.19568 1.04042 9.19568 0.752733 9.31898 0.511807C9.40743 0.338944 9.33902 0.127163 9.16619 0.0386747C8.99343 -0.0497785 8.78154 0.0186356 8.69308 0.191464C8.46713 0.632956 8.46713 1.16012 8.69308 1.60162C8.81638 1.84254 8.81638 2.13023 8.69308 2.37115Z" fill="#696969"/>
<path d="M5.68228 2.37115C5.59383 2.54401 5.66224 2.7558 5.83507 2.84428C5.88636 2.87051 5.94103 2.88296 5.99493 2.88296C6.12272 2.88296 6.24598 2.81307 6.30817 2.69149C6.53412 2.25 6.53412 1.72283 6.30817 1.28134C6.18487 1.04042 6.18487 0.752733 6.30817 0.511807C6.39662 0.338944 6.32821 0.127163 6.15538 0.0386747C5.98259 -0.0497785 5.77074 0.0186356 5.68225 0.191464C5.4563 0.632956 5.4563 1.16012 5.68225 1.60162C5.80558 1.84254 5.80558 2.13023 5.68228 2.37115Z" fill="#696969"/>
<path d="M9.24956 7.42067C9.31495 7.35528 9.35257 7.26458 9.35257 7.17212C9.35257 7.07966 9.31495 6.98896 9.24956 6.92356C9.18417 6.85817 9.09347 6.82056 9.00101 6.82056C8.90855 6.82056 8.81784 6.85817 8.75245 6.92356C8.68706 6.98896 8.64944 7.07966 8.64944 7.17212C8.64944 7.26458 8.68706 7.35528 8.75245 7.42067C8.81784 7.48606 8.90855 7.52368 9.00101 7.52368C9.09347 7.52368 9.18417 7.48603 9.24956 7.42067Z" fill="#696969"/>
</g>
<defs>
<clipPath id="clip0_148_9634">
<rect width="18" height="18" fill="white"/>
</clipPath>
</defs>
</svg>
