<svg width="27" height="27" viewBox="0 0 27 27" fill="none" xmlns="http://www.w3.org/2000/svg">
<g filter="url(#filter0_d_148_164)">
<path d="M22.7622 11.0558C22.7622 10.7426 22.5082 10.4886 22.195 10.4886H21.0597V2.75501C21.0597 1.23589 19.8238 0 18.3047 0C16.7856 0 15.5497 1.23589 15.5497 2.75501V3.78902C15.5497 4.10226 15.8037 4.35624 16.1169 4.35624C16.4301 4.35624 16.6841 4.10226 16.6841 3.78902V2.75501C16.6841 1.86141 17.4111 1.13444 18.3047 1.13444C19.1983 1.13444 19.9253 1.86141 19.9253 2.75501V10.4886H4.8055C4.49226 10.4886 4.23828 10.7426 4.23828 11.0558C4.23828 13.6158 5.8574 15.8044 8.12527 16.6522C7.68901 17.1108 7.41919 17.7397 7.41919 18.4328C7.41919 18.746 7.67317 19 7.98641 19C8.29965 19 8.55363 18.746 8.55363 18.4328C8.55363 17.6583 9.1446 17.0282 9.87105 17.0282C9.89773 17.0282 17.1028 17.0282 17.1294 17.0282C17.8559 17.0282 18.4469 17.6583 18.4469 18.4328C18.4469 18.746 18.7009 19 19.0141 19C19.3274 19 19.5813 18.746 19.5813 18.4328C19.5813 17.7397 19.3115 17.1108 18.8753 16.6522C21.1431 15.8044 22.7622 13.6158 22.7622 11.0558ZM16.7898 15.8938H10.2107C7.73481 15.8938 5.68741 14.0245 5.40578 11.6231H21.5947C21.3131 14.0245 19.2656 15.8938 16.7898 15.8938Z" fill="#696969"/>
<path d="M16.1165 5.34045C15.8033 5.34045 15.5493 5.59443 15.5493 5.90767V6.39926C15.5493 6.7125 15.8033 6.96648 16.1165 6.96648C16.4298 6.96648 16.6838 6.7125 16.6838 6.39926V5.90767C16.6837 5.59439 16.4298 5.34045 16.1165 5.34045Z" fill="#696969"/>
<path d="M16.1165 8.06311C15.8033 8.06311 15.5493 8.31709 15.5493 8.63033V9.12192C15.5493 9.43516 15.8033 9.68913 16.1165 9.68913C16.4298 9.68913 16.6838 9.43516 16.6838 9.12192V8.63033C16.6837 8.31705 16.4298 8.06311 16.1165 8.06311Z" fill="#696969"/>
</g>
<defs>
<filter id="filter0_d_148_164" x="0" y="0" width="27" height="27" filterUnits="userSpaceOnUse" color-interpolation-filters="sRGB">
<feFlood flood-opacity="0" result="BackgroundImageFix"/>
<feColorMatrix in="SourceAlpha" type="matrix" values="0 0 0 0 0 0 0 0 0 0 0 0 0 0 0 0 0 0 127 0" result="hardAlpha"/>
<feOffset dy="4"/>
<feGaussianBlur stdDeviation="2"/>
<feComposite in2="hardAlpha" operator="out"/>
<feColorMatrix type="matrix" values="0 0 0 0 0 0 0 0 0 0 0 0 0 0 0 0 0 0 0.25 0"/>
<feBlend mode="normal" in2="BackgroundImageFix" result="effect1_dropShadow_148_164"/>
<feBlend mode="normal" in="SourceGraphic" in2="effect1_dropShadow_148_164" result="shape"/>
</filter>
</defs>
</svg>
