<svg width="19" height="19" viewBox="0 0 19 19" fill="none" xmlns="http://www.w3.org/2000/svg">
<path d="M18.2733 7.6122L17.8592 7.17374L16.4058 3.25601C16.1581 2.59425 15.5248 2.15579 14.8184 2.15173H4.43739C3.73098 2.15173 3.09765 2.59425 2.85 3.25601L1.41688 7.12502L0.820086 7.67716C0.300427 8.11968 0 8.76925 0 9.45131V15.1594C0.00405983 16.0932 0.763248 16.8483 1.69701 16.8483H2.7688C3.70256 16.8483 4.46175 16.0932 4.46581 15.1594V14.3312H14.5342V15.1594C14.5382 16.0932 15.2974 16.8483 16.2312 16.8483H17.303C18.2368 16.8483 18.9959 16.0932 19 15.1594V9.30109C18.9959 8.6637 18.7361 8.05472 18.2733 7.6122ZM3.61325 3.53208C3.74316 3.18699 4.07201 2.9637 4.43739 2.9637H14.8224C15.1878 2.9637 15.5167 3.19105 15.6466 3.53208L16.9132 6.94233H15.9673C15.744 5.4199 14.3271 4.3684 12.8047 4.59575C11.5908 4.77438 10.6368 5.72844 10.4581 6.94233H2.34658L3.61325 3.53208ZM15.1391 6.94233H11.2782C11.5015 5.8746 12.5489 5.19254 13.6167 5.41584C14.3799 5.57823 14.9767 6.17502 15.1391 6.94233ZM3.65385 15.1594C3.64979 15.6466 3.25598 16.0363 2.7688 16.0363H1.69701C1.20983 16.0363 0.816026 15.6466 0.811966 15.1594V14.0957C1.05556 14.2541 1.37628 14.3312 1.69701 14.3312H3.65385V15.1594ZM18.188 15.1594C18.184 15.6466 17.7902 16.0363 17.303 16.0363H16.2312C15.744 16.0363 15.3502 15.6425 15.3462 15.1594V14.3312H17.303C17.6237 14.3312 17.9444 14.2541 18.188 14.0957V15.1594ZM17.303 13.5193H1.69701C1.21389 13.5233 0.816026 13.1376 0.811966 12.6505V9.45131C0.811966 9.00472 1.0109 8.57844 1.35192 8.29019C1.35598 8.28613 1.3641 8.27802 1.36816 8.27396L1.9203 7.7543H17.2949L17.6846 8.17246C17.6887 8.18058 17.7009 8.18464 17.7049 8.19276C18.0094 8.48101 18.184 8.88293 18.184 9.30109V12.6505H18.188C18.184 13.1336 17.7861 13.5233 17.303 13.5193Z" fill="#696969"/>
<path d="M5.35906 9.37817H2.31419C2.0909 9.37817 1.9082 9.56087 1.9082 9.78416V11.8953C1.9082 12.1186 2.0909 12.3013 2.31419 12.3013H5.35906C5.58235 12.3013 5.76504 12.1186 5.76504 11.8953V9.78416C5.76504 9.56087 5.58235 9.37817 5.35906 9.37817ZM4.95308 11.4893H2.72017V10.1901H4.95308V11.4893Z" fill="#696969"/>
<path d="M16.6862 9.37817H13.6413C13.418 9.37817 13.2354 9.56087 13.2354 9.78416V11.8953C13.2354 12.1186 13.418 12.3013 13.6413 12.3013H16.6862C16.9095 12.3013 17.0922 12.1186 17.0922 11.8953V9.78416C17.0922 9.56087 16.9095 9.37817 16.6862 9.37817ZM16.2802 11.4893H14.0473V10.1901H16.2802V11.4893Z" fill="#696969"/>
<path d="M11.4611 11.0833H7.53928C7.31599 11.0833 7.1333 11.2659 7.1333 11.4892C7.1333 11.7125 7.31599 11.8952 7.53928 11.8952H11.4611C11.6844 11.8952 11.8671 11.7125 11.8671 11.4892C11.8671 11.2659 11.6844 11.0833 11.4611 11.0833Z" fill="#696969"/>
<path d="M11.4611 9.82471H7.53928C7.31599 9.82471 7.1333 10.0074 7.1333 10.2307C7.1333 10.454 7.31599 10.6367 7.53928 10.6367H11.4611C11.6844 10.6367 11.8671 10.454 11.8671 10.2307C11.8671 10.0074 11.6844 9.82471 11.4611 9.82471Z" fill="#696969"/>
</svg>
