<svg width="20" height="20" viewBox="0 0 20 20" fill="none" xmlns="http://www.w3.org/2000/svg">
<g clip-path="url(#clip0_148_9708)">
<path d="M19.7646 4.79366C19.5946 4.60935 19.3527 4.50366 19.101 4.50366H18.8339C18.1335 4.50366 17.5593 5.02602 17.498 5.71873L17.2091 8.98753C17.1835 9.27721 16.9433 9.49569 16.6504 9.49569H14.1494C13.348 9.49569 12.696 10.1431 12.696 10.9388V11.0822C12.696 11.5629 13.0898 11.954 13.574 11.954H14.1101L13.5822 13.6658C13.5818 13.6671 13.5814 13.6683 13.581 13.6696L13.1775 14.9781C13.1301 15.1317 13.2172 15.2943 13.3718 15.3414C13.4004 15.3501 13.4293 15.3542 13.4577 15.3542C13.5831 15.3542 13.6991 15.2737 13.7377 15.1484L14.078 14.0449H18.0964L18.4367 15.1484C18.4753 15.2737 18.5913 15.3542 18.7167 15.3542C18.7451 15.3542 18.7741 15.3501 18.8026 15.3414C18.9573 15.2943 19.0443 15.1317 18.9969 14.9781L18.0393 11.8727C18.2074 11.8254 18.3698 11.7582 18.5221 11.6715C18.6625 11.5916 18.711 11.4138 18.6306 11.2745C18.5501 11.1351 18.371 11.0869 18.2307 11.1668C17.9946 11.3012 17.7253 11.3722 17.4518 11.3722H14.5064C14.5054 11.3722 14.5045 11.3722 14.5035 11.3722H13.5741C13.4131 11.3722 13.282 11.2422 13.282 11.0822V10.9388C13.282 10.4639 13.6711 10.0775 14.1495 10.0775H16.6505C17.2494 10.0775 17.7405 9.63078 17.7929 9.03841L18.0818 5.76958C18.1162 5.37955 18.4396 5.0854 18.8339 5.0854H19.101C19.1901 5.0854 19.2724 5.12136 19.3326 5.18663C19.3929 5.25191 19.4218 5.33642 19.414 5.42462L19.0139 9.9513C19.0041 10.0629 18.9821 10.1734 18.9488 10.2796C18.9007 10.433 18.9869 10.5961 19.1414 10.6438C19.2961 10.6916 19.4601 10.6059 19.5083 10.4526C19.5541 10.3067 19.5841 10.1552 19.5976 10.0022L19.9977 5.47547C20.0196 5.22651 19.9347 4.97797 19.7646 4.79366ZM14.7228 11.954H17.4515L17.9169 13.4632H14.2573L14.7228 11.954Z" fill="#696969"/>
<path d="M5.85243 9.49667H3.35142C3.05849 9.49667 2.81833 9.27823 2.79271 8.9885L2.5038 5.71971C2.44259 5.027 1.8683 4.50464 1.16795 4.50464H0.900877C0.649159 4.50464 0.407246 4.61033 0.237207 4.79464C0.0671681 4.97895 -0.0177536 5.22748 0.00419943 5.47652L0.404277 10.0032C0.451503 10.5374 0.696815 11.0311 1.09506 11.3933C1.34525 11.6209 1.64232 11.7842 1.96248 11.8741L1.0049 14.9791C0.957518 15.1327 1.04455 15.2954 1.19924 15.3424C1.22783 15.3511 1.25674 15.3552 1.28513 15.3552C1.41049 15.3552 1.52654 15.2747 1.56513 15.1494L1.90545 14.046H5.9238L6.26411 15.1494C6.3027 15.2747 6.41872 15.3552 6.54411 15.3552C6.57255 15.3552 6.60145 15.3511 6.63001 15.3424C6.78469 15.2954 6.87173 15.1327 6.82434 14.9791L6.42083 13.6706C6.42044 13.6694 6.42005 13.6681 6.41966 13.6668L5.89177 11.955H6.42782C6.912 11.955 7.30583 11.5639 7.30583 11.0832V10.9398C7.30583 10.144 6.65383 9.49667 5.85243 9.49667ZM2.08486 13.4641L2.55025 11.955H5.27895L5.74434 13.4641H2.08486ZM6.71989 11.0831C6.71989 11.2431 6.58887 11.3732 6.42782 11.3732H5.4986C5.49743 11.3732 5.4963 11.3732 5.49513 11.3732H2.55009C2.48744 11.3732 2.4258 11.3692 2.36509 11.3622C2.36505 11.3622 2.36498 11.3622 2.3649 11.3622C1.63193 11.2781 1.05404 10.7003 0.987948 9.95228L0.58787 5.42564C0.580058 5.3374 0.608964 5.25289 0.669198 5.18761C0.729393 5.12233 0.811659 5.08638 0.900838 5.08638H1.16791C1.56224 5.08638 1.8856 5.38049 1.92006 5.77055L2.20896 9.03935V9.03931C2.2613 9.63168 2.75244 10.0784 3.35138 10.0784H5.85239C6.33071 10.0784 6.71985 10.4648 6.71985 10.9397V11.0831H6.71989Z" fill="#696969"/>
<path d="M12.2249 14.3948C12.104 13.9333 11.6843 13.6111 11.2041 13.6111H11.0227V8.31554H14.6303C14.8381 8.31554 15.0326 8.22381 15.1639 8.0639C15.2953 7.90395 15.3466 7.69629 15.3048 7.49414C15.1787 6.88583 14.6333 6.44434 14.0079 6.44434H7.91699C7.75516 6.44434 7.62402 6.57458 7.62402 6.73523C7.62402 6.89588 7.75516 7.02612 7.91699 7.02612H14.0079C14.3566 7.02612 14.6606 7.27225 14.7308 7.61131C14.7394 7.65258 14.7213 7.68225 14.7098 7.69629C14.6983 7.71029 14.6727 7.73379 14.6303 7.73379H5.3704C5.32801 7.73379 5.30239 7.71029 5.29087 7.69629C5.27938 7.68229 5.26133 7.65258 5.26989 7.61135C5.34012 7.27225 5.64411 7.02612 5.99278 7.02612H6.54293C6.70477 7.02612 6.8359 6.89588 6.8359 6.73523C6.8359 6.57458 6.70477 6.44434 6.54293 6.44434H5.99278C5.36731 6.44434 4.82192 6.88583 4.69594 7.49418C4.65411 7.69633 4.70544 7.90398 4.83676 8.0639C4.96809 8.22381 5.16258 8.31554 5.3704 8.31554H8.97801V13.6111H8.79668C8.31648 13.6111 7.89672 13.9334 7.77582 14.3948L7.70703 14.6572C7.66301 14.8254 7.6991 15.0005 7.8061 15.138C7.91313 15.2754 8.07484 15.3543 8.24977 15.3543H11.7509C11.9259 15.3543 12.0876 15.2755 12.1946 15.138C12.3016 15.0006 12.3377 14.8254 12.2937 14.6572L12.2249 14.3948ZM9.56394 8.31554H10.4368V13.6111H9.56394V8.31554ZM8.28227 14.7724L8.34289 14.5412C8.3966 14.3361 8.5832 14.1929 8.79664 14.1929H11.204C11.4175 14.1929 11.6041 14.3361 11.6578 14.5412L11.7184 14.7724H8.28227Z" fill="#696969"/>
</g>
<defs>
<clipPath id="clip0_148_9708">
<rect width="20" height="19.8582" fill="white"/>
</clipPath>
</defs>
</svg>
