<svg width="20" height="20" viewBox="0 0 20 20" fill="none" xmlns="http://www.w3.org/2000/svg">
<g clip-path="url(#clip0_148_1937)">
<path d="M12.8877 0.115509C12.796 0.018921 12.6703 -0.0390625 12.54 -0.0390625H4.73801C3.29834 -0.0390625 2.10999 1.14456 2.10999 2.58408V17.3377C2.10999 18.7773 3.29834 19.961 4.73801 19.961H15.3273C16.767 19.961 17.9554 18.7773 17.9554 17.3377V5.62272C17.9554 5.49714 17.8974 5.37644 17.8153 5.28459L12.8877 0.115509ZM13.0278 1.66626L16.3274 5.13001H14.1825C13.5448 5.13001 13.0278 4.61793 13.0278 3.98026V1.66626ZM15.3273 18.9948H4.73801C3.83469 18.9948 3.07617 18.246 3.07617 17.3377V2.58408C3.07617 1.68076 3.82981 0.927126 4.73801 0.927126H12.0616V3.98026C12.0616 5.15412 13.0086 6.0962 14.1825 6.0962H16.9892V17.3377C16.9892 18.246 16.2355 18.9948 15.3273 18.9948Z" fill="#696969"/>
<path d="M14.0083 15.6615H6.05658C5.79092 15.6615 5.57349 15.8788 5.57349 16.1446C5.57349 16.4103 5.79092 16.6277 6.05658 16.6277H14.0131C14.2788 16.6277 14.4962 16.4103 14.4962 16.1446C14.4962 15.8788 14.2788 15.6615 14.0083 15.6615Z" fill="#696969"/>
<path d="M9.6798 13.9272C9.77166 14.0238 9.89724 14.0817 10.0324 14.0817C10.1678 14.0817 10.2934 14.0238 10.3851 13.9272L13.216 10.8885C13.3996 10.6952 13.3851 10.3861 13.1919 10.2074C12.9986 10.0238 12.6894 10.0382 12.5108 10.2315L10.5155 12.3715V7.09625C10.5155 6.83044 10.2981 6.61316 10.0324 6.61316C9.76678 6.61316 9.54934 6.83044 9.54934 7.09625V12.3715L7.55898 10.2315C7.37541 10.0383 7.071 10.0238 6.87782 10.2074C6.68465 10.3909 6.67015 10.6954 6.85371 10.8885L9.6798 13.9272Z" fill="#696969"/>
</g>
<defs>
<clipPath id="clip0_148_1937">
<rect width="20" height="20" fill="white"/>
</clipPath>
</defs>
</svg>
