<svg width="14" height="15" viewBox="0 0 14 15" fill="none" xmlns="http://www.w3.org/2000/svg">
<path d="M3.0625 4.82012C3.77114 4.82012 4.34766 4.23948 4.34766 3.52578C4.34766 2.81208 3.77114 2.23145 3.0625 2.23145C2.35386 2.23145 1.77734 2.81208 1.77734 3.52578C1.77734 4.23948 2.35386 4.82012 3.0625 4.82012ZM3.0625 3.05762C3.31882 3.05762 3.52734 3.26763 3.52734 3.52578C3.52734 3.78393 3.31882 3.99395 3.0625 3.99395C2.80618 3.99395 2.59766 3.78393 2.59766 3.52578C2.59766 3.26763 2.80618 3.05762 3.0625 3.05762Z" fill="#696969"/>
<path d="M11.1971 1.57234L9.01904 1.35299C2.69946 0.410051 3.10945 0.468737 3.0625 0.468737C1.37383 0.468737 0 1.84002 0 3.52557C0 4.12636 0.174645 4.68717 0.475781 5.16024C0.483191 5.19248 0.841313 6.45267 2.23062 11.35C2.28093 11.5273 2.44188 11.6496 2.625 11.6496H2.87109V13.2193C2.87109 13.4475 3.05473 13.6324 3.28125 13.6324C3.50777 13.6324 3.69141 13.4475 3.69141 13.2193V11.6496H4.15625C4.38277 11.6496 4.56641 11.4646 4.56641 11.2365V6.36254L9.01901 5.69816L11.197 5.47881C11.4067 5.45769 11.5664 5.27998 11.5664 5.06776V1.98339C11.5664 1.77117 11.4067 1.59346 11.1971 1.57234ZM3.03352 1.2951L8.55859 2.11946V4.93166L3.03352 5.75604C1.81043 5.74059 0.820312 4.74594 0.820312 3.52557C0.820312 2.30521 1.81043 1.31055 3.03352 1.2951ZM3.74609 10.8234H2.93437L1.6304 6.22688C2.05803 6.45366 2.54546 6.58241 3.0625 6.58241C3.10557 6.58241 3.07308 6.58533 3.74609 6.48492V10.8234ZM10.7461 4.69392L9.37891 4.83161V2.21953L10.7461 2.35723V4.69392Z" fill="#696969"/>
<path d="M12.9062 3.05762H13.5898C13.8164 3.05762 14 2.87266 14 2.64453C14 2.4164 13.8164 2.23145 13.5898 2.23145H12.9062C12.6797 2.23145 12.4961 2.4164 12.4961 2.64453C12.4961 2.87266 12.6797 3.05762 12.9062 3.05762Z" fill="#696969"/>
<path d="M13.5898 3.9939H12.9062C12.6797 3.9939 12.4961 4.17885 12.4961 4.40698C12.4961 4.63512 12.6797 4.82007 12.9062 4.82007H13.5898C13.8164 4.82007 14 4.63512 14 4.40698C14 4.17885 13.8164 3.9939 13.5898 3.9939Z" fill="#696969"/>
</svg>
