<svg width="16" height="16" viewBox="0 0 16 16" fill="none" xmlns="http://www.w3.org/2000/svg">
<g clip-path="url(#clip0_148_9759)">
<path d="M0.124112 5.43754C1.17792 6.22798 2.13835 7.13841 2.94888 8.11088C2.16676 7.83944 1.30076 7.68757 0.472548 7.68757H0.311612C0.173893 7.68757 0.052425 7.77772 0.0125189 7.9095C-0.0273872 8.04132 0.0236751 8.18369 0.138268 8.26006C0.297237 8.40075 2.27745 9.41309 2.84707 11.4873C1.95645 11.6785 1.27517 12.4061 1.14636 13.3125H0.311643C0.13905 13.3125 -0.000856016 13.4524 -0.000856016 13.625C-0.000856016 13.7976 0.13905 13.9375 0.311643 13.9375H3.93663C4.10922 13.9375 4.24913 13.7976 4.24913 13.625C4.24913 13.4524 4.10922 13.3125 3.93663 13.3125H1.78032C1.91957 12.6221 2.51154 12.0961 3.24191 12.0641C3.66563 12.0451 4.0761 12.197 4.3855 12.49C4.53356 12.6302 4.77456 12.5932 4.87362 12.4148C5.30694 11.634 6.13162 11.125 7.06162 11.125C7.85027 11.125 8.55314 11.4871 9.01508 12.0654C8.7642 12.3707 8.62411 12.7553 8.62411 13.1563C8.62411 13.2087 8.62661 13.2608 8.6313 13.3125H6.74915C6.57656 13.3125 6.43665 13.4524 6.43665 13.625C6.43665 13.7976 6.57656 13.9375 6.74915 13.9375H15.6866C15.8592 13.9375 15.9991 13.7976 15.9991 13.625C15.9991 13.4524 15.8592 13.3125 15.6866 13.3125H14.8518C14.723 12.406 14.0417 11.6783 13.1511 11.4872C13.7205 9.41393 15.6973 8.40397 15.8599 8.26003C15.9745 8.18366 16.0256 8.04128 15.9857 7.90947C15.9458 7.77769 15.8243 7.68754 15.6866 7.68754H15.5256C14.7835 7.68754 13.9954 7.80913 13.2864 8.02482C14.4137 6.39513 15.6941 5.59276 15.874 5.43757C15.9908 5.35001 16.0314 5.19329 15.9719 5.06001C15.9123 4.92673 15.7684 4.85248 15.6253 4.88108C13.7807 5.24992 12.0903 6.17079 10.8076 7.43685C10.9889 6.04985 11.398 4.7132 12.0286 3.4523C12.0887 3.33199 12.0652 3.18668 11.97 3.09158C11.8749 2.99649 11.7296 2.97287 11.6093 3.03302C9.94973 3.8628 8.63348 5.33583 8.02974 7.20363C7.06312 5.09373 5.4714 3.3063 3.47238 2.10706C3.34938 2.03324 3.19201 2.05265 3.09063 2.15406C2.98923 2.25546 2.96988 2.41284 3.04363 2.53577C4.10391 4.39111 4.79862 5.20111 5.33037 6.85423C3.96894 5.5697 2.1036 4.87498 0.311612 4.87498C0.177112 4.87498 0.0577063 4.96105 0.0151439 5.08864C-0.0273559 5.21633 0.0165189 5.35683 0.124112 5.43754ZM4.52256 11.8028C4.21281 11.5964 3.85569 11.4729 3.48138 11.4441C3.20488 10.3149 2.45313 9.20981 1.40233 8.37841C2.24639 8.49606 3.07529 8.76691 3.7415 9.15131C4.22675 9.85153 4.63597 10.5772 4.96034 11.3123C4.79706 11.4605 4.65063 11.6243 4.52256 11.8028ZM14.2179 13.3125H9.26033C9.25301 13.2611 9.24911 13.209 9.24911 13.1563C9.24911 12.8393 9.38654 12.5381 9.62617 12.33C9.82485 12.1575 10.0794 12.0625 10.3429 12.0625C10.6647 12.0625 10.9687 12.2033 11.1771 12.4488C11.1772 12.4489 11.1773 12.449 11.1774 12.4491C11.2918 12.5835 11.4967 12.5964 11.627 12.4765C11.6271 12.4764 11.6272 12.4764 11.6272 12.4763C11.9337 12.1936 12.3378 12.0456 12.7567 12.0641C13.4867 12.0961 14.0787 12.6221 14.2179 13.3125ZM12.5168 11.4441C12.2694 11.4632 12.0291 11.5239 11.805 11.6226C11.9561 10.687 12.2742 9.77093 12.7532 8.89025C13.2935 8.64394 13.9408 8.46566 14.5981 8.37669C13.5462 9.20828 12.7936 10.3141 12.5168 11.4441ZM14.2845 5.92382C12.6611 7.43379 11.4915 9.44656 11.169 11.6492C10.9188 11.512 10.6356 11.4376 10.3429 11.4376C10.0428 11.4376 9.75036 11.5163 9.49308 11.6627C9.3878 11.5324 9.27239 11.4106 9.14717 11.2983C9.31576 10.9287 9.59173 9.821 10.6508 8.53356C11.596 7.38404 12.8737 6.47454 14.2845 5.92382ZM11.0517 4.09383C10.515 5.40704 10.1975 6.78901 10.1043 8.21534C9.62151 8.81603 9.22642 9.46634 8.92698 10.1539C8.81786 9.48296 8.6488 8.82169 8.42395 8.18147C8.73586 6.52641 9.69101 5.05705 11.0517 4.09383ZM4.32569 3.45783C5.90506 4.7148 7.11946 6.39792 7.80724 8.31053C8.07892 9.06565 8.26733 9.85299 8.36714 10.6507L8.38492 10.7929C7.97458 10.6004 7.52655 10.5 7.06162 10.5C6.85002 10.5 6.64112 10.5215 6.43662 10.563V9.91874C6.43662 6.3336 4.65772 4.09711 4.32569 3.45783ZM5.65825 8.17744C5.75968 8.75019 5.81162 9.33559 5.81162 9.91878V10.7606C5.69597 10.8112 5.58365 10.8685 5.47518 10.9326C4.5375 8.86969 3.0466 7.04941 1.30136 5.57617C3.05232 5.8446 4.68878 6.80548 5.65825 8.17744Z" fill="#696969"/>
<path d="M5.34222 13.9375C5.51481 13.9375 5.65472 13.7976 5.65472 13.625C5.65472 13.4524 5.51481 13.3125 5.34222 13.3125C5.16964 13.3125 5.02972 13.4524 5.02972 13.625C5.02972 13.7976 5.16964 13.9375 5.34222 13.9375Z" fill="#696969"/>
</g>
<defs>
<clipPath id="clip0_148_9759">
<rect width="16" height="16" fill="white"/>
</clipPath>
</defs>
</svg>
