<svg width="16" height="10" viewBox="0 0 16 10" fill="none" xmlns="http://www.w3.org/2000/svg">
<path d="M15.0625 3.4375H14.75V2.03125C14.75 1.34192 14.1891 0.78125 13.5 0.78125C13.259 0.78125 13.0337 0.849731 12.8428 0.968384C12.715 0.414062 12.2172 0 11.625 0H11.6246C10.9357 0 10.3746 0.560669 10.3746 1.25V3.4375H5.62537V1.25C5.62537 0.560669 5.06433 0 4.375 0C3.78284 0 3.28503 0.414062 3.15723 0.968384C2.96631 0.849731 2.74097 0.78125 2.5 0.78125C1.81091 0.78125 1.25 1.34192 1.25 2.03125V3.4375H0.9375C0.420654 3.4375 0 3.85815 0 4.375V5.625C0 6.14185 0.420654 6.5625 0.9375 6.5625H1.25V7.96875C1.25 8.65808 1.81091 9.21875 2.5 9.21875C2.74097 9.21875 2.96631 9.15027 3.15723 9.03162C3.28503 9.58594 3.78284 10 4.375 10H4.37537C5.06433 10 5.62537 9.43933 5.62537 8.75V6.5625H10.3746V8.75C10.3746 9.43933 10.9357 10 11.625 10C12.2172 10 12.715 9.58594 12.8428 9.03162C13.0337 9.15027 13.259 9.21875 13.5 9.21875C14.1891 9.21875 14.75 8.65808 14.75 7.96875V6.5625H15.0625C15.5793 6.5625 16 6.14185 16 5.625V4.375C16 3.85815 15.5793 3.4375 15.0625 3.4375ZM1.25 5.9375H0.9375C0.765259 5.9375 0.625 5.79724 0.625 5.625V4.375C0.625 4.20276 0.765259 4.0625 0.9375 4.0625H1.25V5.9375ZM3.125 7.96875C3.125 8.14124 3.05505 8.29749 2.94189 8.41064C2.82874 8.5238 2.67249 8.59375 2.5 8.59375C2.15527 8.59375 1.875 8.31348 1.875 7.96875V2.03125C1.875 1.68652 2.15527 1.40625 2.5 1.40625C2.84473 1.40625 3.125 1.68652 3.125 2.03125V7.96875ZM5.00037 8.75C5.00037 9.09473 4.71973 9.375 4.37537 9.375H4.375C4.03064 9.375 3.75 9.09473 3.75 8.75V1.25C3.75 0.905273 4.03064 0.625 4.37537 0.625C4.71973 0.625 5.00037 0.905273 5.00037 1.25V8.75ZM10.3728 4.6875H8.1875C8.01501 4.6875 7.875 4.82751 7.875 5C7.875 5.17249 8.01501 5.3125 8.1875 5.3125H10.3728V5.9375H5.62378V4.0625H10.3728V4.6875ZM12.25 8.75C12.25 9.09473 11.9694 9.375 11.6246 9.375C11.2803 9.375 10.9996 9.09473 10.9996 8.75V5.01599C10.9994 5.02283 10.9988 5.02966 10.9978 5.03625V4.96375C10.9988 4.97034 10.9994 4.97717 10.9996 4.98401V1.25C10.9996 0.905273 11.2803 0.625 11.6246 0.625H11.625C11.9694 0.625 12.25 0.905273 12.25 1.25V8.75ZM14.125 7.96875C14.125 8.31348 13.8447 8.59375 13.5 8.59375C13.1553 8.59375 12.875 8.31348 12.875 7.96875V2.03125C12.875 1.68652 13.1553 1.40625 13.5 1.40625C13.8447 1.40625 14.125 1.68652 14.125 2.03125V7.96875ZM15.375 5.625C15.375 5.79724 15.2347 5.9375 15.0625 5.9375H14.75V4.0625H15.0625C15.2347 4.0625 15.375 4.20276 15.375 4.375V5.625Z" fill="#696969"/>
</svg>
