<svg width="16" height="16" viewBox="0 0 16 16" fill="none" xmlns="http://www.w3.org/2000/svg">
<g clip-path="url(#clip0_148_9715)">
<path d="M5.79102 12.406C5.66155 12.406 5.55664 12.5109 5.55664 12.6404V13.6505C5.55664 13.78 5.66155 13.8849 5.79102 13.8849H10.2105C10.3399 13.8849 10.4448 13.78 10.4448 13.6505V12.6404C10.4448 12.5109 10.3399 12.406 10.2105 12.406H5.79102ZM9.97608 13.4162H6.02539V12.8748H9.97608V13.4162Z" fill="#696969"/>
<path d="M9.49786 3.54125V2.75978C9.49786 2.63034 9.39295 2.52541 9.26348 2.52541H8.74027V1.47891H10.0211C10.4289 1.47891 10.7606 1.14719 10.7606 0.739438C10.7606 0.331688 10.4289 0 10.0211 0H6.00861C5.81105 0 5.62533 0.0769063 5.48574 0.216594L4.67089 1.03147C4.52961 1.17272 4.45186 1.3605 4.45186 1.56022C4.45186 1.75994 4.52961 1.94775 4.67086 2.08897C4.81211 2.23019 4.99986 2.30797 5.19961 2.30797C5.39936 2.30797 5.58711 2.23019 5.72839 2.08897L6.33842 1.47891H7.26133V2.52541H6.73811C6.60864 2.52541 6.50374 2.63034 6.50374 2.75978V3.54125C5.09674 3.62741 3.97833 4.79887 3.97833 6.22719V12.5956C3.97833 12.7251 4.08324 12.83 4.21271 12.83C4.34218 12.83 4.44708 12.7251 4.44708 12.5956V6.22719C4.44708 5.00153 5.44424 4.00437 6.66989 4.00437H9.33177C10.5574 4.00437 11.5546 5.00153 11.5546 6.22719V7.13906C11.5546 7.2685 11.6595 7.37344 11.789 7.37344C11.9184 7.37344 12.0233 7.2685 12.0233 7.13906V6.22719C12.0233 4.79891 10.9049 3.62744 9.49786 3.54125ZM6.24133 1.01016C6.17917 1.01016 6.11958 1.03484 6.07558 1.07881L5.39692 1.7575C5.34421 1.81022 5.27411 1.83922 5.19961 1.83922C5.12511 1.83922 5.05502 1.81019 5.00233 1.75747C4.94964 1.70478 4.92064 1.63472 4.92064 1.56019C4.92064 1.48566 4.94968 1.41559 5.00236 1.36291L5.81724 0.548C5.86836 0.496906 5.93633 0.46875 6.00864 0.46875H10.0211C10.1704 0.46875 10.2919 0.590187 10.2919 0.739469C10.2919 0.88875 10.1704 1.01019 10.0211 1.01019H6.24133V1.01016ZM7.73008 1.47891H8.27152V2.52541H7.73008V1.47891ZM9.02911 2.99416V3.53562H6.97249V2.99416H9.02911Z" fill="#696969"/>
<path d="M11.789 8.00146C11.6595 8.00146 11.5546 8.1064 11.5546 8.23584V14.8187C11.5546 15.2115 11.2348 15.5312 10.8418 15.5312H5.15989C4.76686 15.5312 4.44708 15.2115 4.44708 14.8187V13.6924C4.44708 13.563 4.34218 13.458 4.21271 13.458C4.08324 13.458 3.97833 13.563 3.97833 13.6924V14.8187C3.97833 15.47 4.50836 15.9999 5.15989 15.9999H10.8418C11.4933 15.9999 12.0233 15.47 12.0233 14.8187V8.23584C12.0233 8.1064 11.9184 8.00146 11.789 8.00146Z" fill="#696969"/>
<path d="M8.00087 6.4397C6.54875 6.4397 5.36737 7.6211 5.36737 9.0732C5.36737 10.5253 6.54878 11.7067 8.00087 11.7067C9.45296 11.7067 10.6344 10.5253 10.6344 9.0732C10.6344 7.62107 9.453 6.4397 8.00087 6.4397ZM8.00087 11.238C6.80721 11.238 5.83612 10.2669 5.83612 9.07323C5.83612 7.87957 6.80721 6.90848 8.00087 6.90848C9.19453 6.90848 10.1656 7.8796 10.1656 9.07323C10.1656 10.2669 9.19453 11.238 8.00087 11.238Z" fill="#696969"/>
<path d="M8.01632 7.51318C7.95132 7.51318 7.88923 7.54018 7.84488 7.58775C7.6657 7.77996 6.77179 8.77021 6.77179 9.38909C6.77179 10.0753 7.33007 10.6336 8.01632 10.6336C8.70257 10.6336 9.26085 10.0753 9.26085 9.38909C9.26085 8.77021 8.36698 7.77996 8.18776 7.58775C8.14341 7.54021 8.08132 7.51318 8.01632 7.51318ZM8.01632 10.1649C7.58857 10.1649 7.24054 9.81684 7.24054 9.38909C7.24054 9.11312 7.65113 8.52706 8.01632 8.0999C8.38154 8.52706 8.7921 9.11312 8.7921 9.38909C8.7921 9.81687 8.44407 10.1649 8.01632 10.1649Z" fill="#696969"/>
</g>
<defs>
<clipPath id="clip0_148_9715">
<rect width="16" height="16" fill="white"/>
</clipPath>
</defs>
</svg>
