<svg width="16" height="16" viewBox="0 0 16 16" fill="none" xmlns="http://www.w3.org/2000/svg">
<path d="M14.5938 1.89282H1.40625C0.630844 1.89282 0 2.51919 0 3.2891V11.6047C0 12.3746 0.630844 13.001 1.40625 13.001H2.03125V13.5285C2.03125 13.7855 2.24113 13.9939 2.5 13.9939C2.75887 13.9939 2.96875 13.7855 2.96875 13.5285V13.001H13.0312V13.5285C13.0312 13.7855 13.2411 13.9939 13.5 13.9939C13.7589 13.9939 13.9688 13.7855 13.9688 13.5285V13.001H14.5938C15.3692 13.001 16 12.3746 16 11.6047V3.2891C16 2.51919 15.3692 1.89282 14.5938 1.89282ZM11.0312 12.0701H1.40625C1.14778 12.0701 0.9375 11.8613 0.9375 11.6047V3.2891C0.9375 3.03246 1.14778 2.82367 1.40625 2.82367H11.0312V12.0701ZM15.0625 11.6047C15.0625 11.8613 14.8522 12.0701 14.5938 12.0701H11.9688V5.05772H15.0625V11.6047ZM15.0625 4.12686H11.9688V2.82367H14.5938C14.8522 2.82367 15.0625 3.03246 15.0625 3.2891V4.12686Z" fill="#696969"/>
<path d="M13.0406 10.6408C13.0934 10.893 13.3325 11.0545 13.5919 11.0063C13.8466 10.9536 14.0084 10.7153 13.96 10.4589C13.9011 10.1797 13.6211 10.0271 13.3644 10.1046C13.1233 10.181 12.997 10.4092 13.0406 10.6408Z" fill="#696969"/>
<path d="M13.0406 8.65492C13.0934 8.90712 13.3325 9.06869 13.5919 9.02044C13.8466 8.96775 14.0084 8.72942 13.96 8.47309C13.901 8.19374 13.6211 8.04124 13.3644 8.11875C13.1233 8.19514 12.997 8.42332 13.0406 8.65492Z" fill="#696969"/>
<path d="M13.0406 6.66908C13.0934 6.92127 13.3325 7.08284 13.5919 7.03459C13.8466 6.9819 14.0084 6.74358 13.96 6.48725C13.901 6.2079 13.6211 6.0554 13.3644 6.13291C13.1233 6.2093 12.997 6.43748 13.0406 6.66908Z" fill="#696969"/>
<path d="M3.4375 11.0152H8.5625C9.33791 11.0152 9.96875 10.3888 9.96875 9.61891V5.27494C9.96875 4.50503 9.33791 3.87866 8.5625 3.87866H3.4375C2.66209 3.87866 2.03125 4.50503 2.03125 5.27494V9.61891C2.03125 10.3888 2.66209 11.0152 3.4375 11.0152ZM2.96875 5.27494C2.96875 5.0183 3.17903 4.80951 3.4375 4.80951H8.5625C8.82097 4.80951 9.03125 5.0183 9.03125 5.27494V9.61891C9.03125 9.87555 8.82097 10.0843 8.5625 10.0843H3.4375C3.17903 10.0843 2.96875 9.87555 2.96875 9.61891V5.27494Z" fill="#696969"/>
</svg>
