<svg width="16" height="16" viewBox="0 0 16 16" fill="none" xmlns="http://www.w3.org/2000/svg">
<g clip-path="url(#clip0_148_9757)">
<path d="M15.4047 14.7501H8.65528V8.62568H15.4047C15.7499 8.62568 16.0297 8.3459 16.0297 8.00068C16.0297 3.45551 12.2399 -0.0940472 7.99622 0.00190003C3.59314 0.0202106 0.0311279 3.5882 0.0311279 8.00068C0.0311279 8.3459 0.310913 8.62568 0.656006 8.62568H7.4054V14.7501H0.656006C0.310913 14.7501 0.0311279 15.0299 0.0311279 15.375C0.0311279 15.7202 0.310913 16 0.656006 16H15.4047C15.7499 16 16.0297 15.7202 16.0297 15.375C16.0297 15.0299 15.7499 14.7501 15.4047 14.7501ZM8.0304 1.25129C8.22669 1.25129 8.71875 1.61347 9.17566 2.98383C9.57031 4.16792 9.80701 5.70905 9.85449 7.3758H6.20618C6.25366 5.70905 6.49048 4.16792 6.88513 2.98383C7.34192 1.61347 7.83399 1.25129 8.0304 1.25129ZM14.7513 7.3758H11.1049C11.0554 5.55683 10.752 3.13423 9.9198 1.5185C12.4877 2.26289 14.4924 4.53632 14.7513 7.3758ZM6.14099 1.51838C5.30982 3.13227 5.00537 5.55256 4.95593 7.3758H1.30933C1.56824 4.53779 3.57153 2.26338 6.14099 1.51838ZM1.90601 12.3128C1.56079 12.3128 1.28101 12.033 1.28101 11.6878V10.4588C1.28101 10.1136 1.56079 9.83381 1.90601 9.83381C2.2511 9.83381 2.53088 10.1136 2.53088 10.4588V11.6878C2.53088 12.033 2.2511 12.3128 1.90601 12.3128ZM4.94727 12.3128C4.60217 12.3128 4.32239 12.033 4.32239 11.6878V10.4588C4.32239 10.1136 4.60217 9.83381 4.94727 9.83381C5.29248 9.83381 5.57227 10.1136 5.57227 10.4588V11.6878C5.57227 12.033 5.29248 12.3128 4.94727 12.3128ZM11.1134 9.83381C11.4586 9.83381 11.7384 10.1136 11.7384 10.4588V11.6878C11.7384 12.033 11.4586 12.3128 11.1134 12.3128C10.7683 12.3128 10.4885 12.033 10.4885 11.6878V10.4588C10.4885 10.1136 10.7683 9.83381 11.1134 9.83381ZM14.1548 9.83381C14.5 9.83381 14.7798 10.1136 14.7798 10.4588V11.6878C14.7798 12.033 14.5 12.3128 14.1548 12.3128C13.8097 12.3128 13.5299 12.033 13.5299 11.6878V10.4588C13.5299 10.1136 13.8097 9.83381 14.1548 9.83381Z" fill="#696969"/>
</g>
<defs>
<clipPath id="clip0_148_9757">
<rect width="16" height="16" fill="white"/>
</clipPath>
</defs>
</svg>
