<svg width="16" height="16" viewBox="0 0 16 16" fill="none" xmlns="http://www.w3.org/2000/svg">
<path d="M2.24961 2.49976C1.9735 2.49976 1.74963 2.72359 1.74963 2.99973V4.49966C1.74963 4.7758 1.9735 4.99963 2.24961 4.99963C2.52572 4.99963 2.74958 4.7758 2.74958 4.49966V2.99973C2.74958 2.72359 2.52572 2.49976 2.24961 2.49976Z" fill="#696969"/>
<path d="M2.24961 8.49951C1.9735 8.49951 1.74963 8.72334 1.74963 8.99949V10.4994C1.74963 10.7756 1.9735 10.9994 2.24961 10.9994C2.52572 10.9994 2.74958 10.7756 2.74958 10.4994V8.99949C2.74958 8.72334 2.52572 8.49951 2.24961 8.49951Z" fill="#696969"/>
<path d="M11.4593 13.7043C11.8045 13.7043 12.0843 13.4245 12.0843 13.0793C12.0843 12.7342 11.8045 12.4543 11.4593 12.4543C11.1142 12.4543 10.8344 12.7342 10.8344 13.0793C10.8344 13.4245 11.1142 13.7043 11.4593 13.7043Z" fill="#696969"/>
<path d="M9.95731 11.5766C9.76203 11.7719 9.76203 12.0885 9.95731 12.2837C10.1526 12.479 10.4691 12.479 10.6644 12.2838C11.103 11.8451 11.8167 11.8451 12.2553 12.2838C12.353 12.3814 12.4809 12.4302 12.6088 12.4302C13.0503 12.4302 13.2782 11.8926 12.9623 11.5767C12.1339 10.7482 10.7859 10.7482 9.95731 11.5766Z" fill="#696969"/>
<path d="M14.0229 10.5161C12.6064 9.09959 10.3134 9.09931 8.89661 10.5161C8.70137 10.7114 8.70137 11.0279 8.89661 11.2232C9.09185 11.4184 9.4084 11.4184 9.60367 11.2232C10.6294 10.1974 12.2899 10.1973 13.3158 11.2232C13.5109 11.4184 13.8276 11.4185 14.0228 11.2232C14.2181 11.0279 14.2181 10.7114 14.0229 10.5161Z" fill="#696969"/>
<path d="M9.50007 7.469C9.50007 7.24719 9.50007 1.47139 9.50007 1.24994C9.50007 0.560722 8.93934 0 8.25013 0H1.25049C0.561271 0 0.000549316 0.560722 0.000549316 1.24994V15.4992C0.000549316 15.7754 0.224413 15.9992 0.500524 15.9992H9.00009C9.2662 15.9992 9.48313 15.7911 9.49857 15.5289C12.5312 17.0143 15.9997 14.8003 15.9997 11.4994C15.9997 8.15646 12.4689 5.99001 9.50007 7.469ZM1.0005 1.24994C1.0005 1.1121 1.11265 0.999949 1.25049 0.999949H8.25013C8.38797 0.999949 8.50012 1.1121 8.50012 1.24994V6.49967H1.0005V1.24994ZM8.50012 14.9992H1.0005V7.49962H8.50012V8.14802C6.50059 9.9404 6.49984 13.0577 8.50012 14.8508V14.9992ZM11.5 14.9992C9.57006 14.9992 8.00014 13.4293 8.00014 11.4994C8.00014 9.56951 9.57006 7.99959 11.5 7.99959C13.4299 7.99959 14.9998 9.56951 14.9998 11.4994C14.9998 13.4293 13.4299 14.9992 11.5 14.9992Z" fill="#696969"/>
</svg>
