<svg width="16" height="16" viewBox="0 0 16 16" fill="none" xmlns="http://www.w3.org/2000/svg">
<g clip-path="url(#clip0_148_9675)">
<path d="M3.77754 2.03809C2.75548 2.03809 1.92401 2.86959 1.92401 3.89162C1.92401 4.91365 2.75551 5.74515 3.77754 5.74515C4.79957 5.74515 5.63107 4.91368 5.63107 3.89162C5.63107 2.86955 4.7996 2.03809 3.77754 2.03809ZM3.77754 4.80765C3.27242 4.80765 2.86151 4.39674 2.86151 3.89162C2.86151 3.38649 3.27245 2.97559 3.77754 2.97559C4.28264 2.97559 4.69357 3.38652 4.69357 3.89162C4.69357 4.39671 4.28267 4.80765 3.77754 4.80765Z" fill="#696969"/>
<path d="M11.5657 14.4677L9.90625 9.78745H6.69056L5.21806 6.29248H2.815L0.982562 11.2764C0.9085 11.4779 0.893094 11.6929 0.933 11.8979H0V12.8354H7.93522L9.49803 15.4421C9.71119 15.7976 10.0916 15.9999 10.4848 15.9999C10.6403 15.9999 10.7978 15.9683 10.9477 15.902C11.4938 15.6605 11.7653 15.0305 11.5657 14.4677ZM3.29828 11.8979L3.8565 11.0029L4.33012 11.8979H3.29828ZM10.5685 15.0446C10.4713 15.0876 10.3567 15.0512 10.3021 14.96L8.46622 11.8979H5.39078L3.92313 9.1247L2.25841 11.7936C2.21766 11.8589 2.14741 11.8979 2.07044 11.8979C1.96991 11.8979 1.91347 11.8385 1.88878 11.8031C1.86409 11.7677 1.82784 11.6943 1.8625 11.5999L3.46919 7.23001H4.59575L6.06825 10.725H9.24397L10.6821 14.781C10.7188 14.8844 10.6689 15.0002 10.5685 15.0446Z" fill="#696969"/>
<path d="M11.2404 3.52059C11.2404 2.92647 11.0001 2.60044 10.8246 2.36238C10.6794 2.16531 10.5917 2.04634 10.5917 1.76034C10.5917 1.47431 10.6794 1.35538 10.8247 1.15825C11.0001 0.920188 11.2404 0.594156 11.2404 0H10.3029C10.3029 0.286 10.2152 0.404969 10.07 0.602063C9.89455 0.840125 9.65424 1.16616 9.65424 1.76031C9.65424 2.35444 9.89452 2.68047 10.07 2.91853C10.2152 3.11559 10.3029 3.23456 10.3029 3.52056C10.3029 3.80666 10.2152 3.92563 10.07 4.12275C9.89452 4.36091 9.65424 4.68697 9.65424 5.28116C9.65424 5.87534 9.89449 6.20141 10.07 6.43947C10.2152 6.63659 10.3029 6.75559 10.3029 7.04166H11.2404C11.2404 6.44747 11.0001 6.12141 10.8247 5.88331C10.6794 5.68619 10.5917 5.56722 10.5917 5.28113C10.5917 4.99503 10.6794 4.87609 10.8247 4.67894C11.0001 4.44084 11.2404 4.11478 11.2404 3.52059Z" fill="#696969"/>
<path d="M13.62 3.52074C13.62 2.92662 13.3797 2.60059 13.2042 2.36252C13.059 2.16546 12.9713 2.04649 12.9713 1.76049C12.9713 1.47446 13.059 1.35552 13.2042 1.1584C13.3797 0.920431 13.62 0.5944 13.62 0.000244141H12.6825C12.6825 0.286244 12.5948 0.405213 12.4496 0.602306C12.2741 0.840369 12.0338 1.1664 12.0338 1.76056C12.0338 2.35468 12.2741 2.68071 12.4496 2.91877C12.5948 3.11584 12.6825 3.23481 12.6825 3.52081C12.6825 3.8069 12.5948 3.92587 12.4495 4.12299C12.2741 4.36109 12.0338 4.68715 12.0338 5.2813C12.0338 5.87546 12.2741 6.20155 12.4495 6.43962C12.5948 6.63674 12.6825 6.75574 12.6825 7.0418H13.62C13.62 6.44762 13.3797 6.12155 13.2042 5.88346C13.059 5.68634 12.9713 5.56737 12.9713 5.28127C12.9713 4.99518 13.059 4.87624 13.2042 4.67909C13.3797 4.44099 13.62 4.11493 13.62 3.52074Z" fill="#696969"/>
<path d="M16.0006 3.52084C16.0006 2.92671 15.7604 2.60068 15.5849 2.36262C15.4397 2.16556 15.352 2.04659 15.352 1.76059C15.352 1.47456 15.4397 1.35562 15.5849 1.15849C15.7604 0.920431 16.0006 0.5944 16.0006 0.000244141H15.0631C15.0631 0.286244 14.9755 0.405213 14.8302 0.602306C14.6548 0.840369 14.4145 1.1664 14.4145 1.76056C14.4145 2.35468 14.6548 2.68071 14.8302 2.91877C14.9755 3.11584 15.0631 3.23481 15.0631 3.52081C15.0631 3.8069 14.9755 3.92587 14.8302 4.12299C14.6548 4.36109 14.4145 4.68715 14.4145 5.2813C14.4145 5.87546 14.6547 6.20155 14.8302 6.43962C14.9755 6.63674 15.0631 6.75574 15.0631 7.0418H16.0006C16.0006 6.44762 15.7604 6.12155 15.5849 5.88346C15.4397 5.68634 15.352 5.56737 15.352 5.28127C15.352 4.99518 15.4397 4.87624 15.5849 4.67909C15.7604 4.44109 16.0006 4.11502 16.0006 3.52084Z" fill="#696969"/>
</g>
<defs>
<clipPath id="clip0_148_9675">
<rect width="16" height="16" fill="white"/>
</clipPath>
</defs>
</svg>
