<svg width="10" height="10" viewBox="0 0 10 10" fill="none" xmlns="http://www.w3.org/2000/svg">
<path d="M9.99861 4.03906C9.99861 3.87165 9.82003 3.80469 9.68611 3.78237L6.88477 3.375L5.62919 0.835937C5.57896 0.72991 5.4841 0.607143 5.35575 0.607143C5.2274 0.607143 5.13253 0.72991 5.08231 0.835937L3.82673 3.375L1.02539 3.78237C0.885882 3.80469 0.712891 3.87165 0.712891 4.03906C0.712891 4.13951 0.785435 4.23437 0.8524 4.30692L2.88365 6.28237L2.40374 9.07254C2.39816 9.11161 2.39258 9.14509 2.39258 9.18415C2.39258 9.32924 2.46512 9.46317 2.62695 9.46317C2.70508 9.46317 2.77762 9.43527 2.85017 9.39621L5.35575 8.07924L7.86133 9.39621C7.92829 9.43527 8.00642 9.46317 8.08454 9.46317C8.24637 9.46317 8.31334 9.32924 8.31334 9.18415C8.31334 9.14509 8.31334 9.11161 8.30776 9.07254L7.82785 6.28237L9.85352 4.30692C9.92606 4.23437 9.99861 4.13951 9.99861 4.03906Z" fill="#CAB877"/>
</svg>
