<svg width="16" height="16" viewBox="0 0 16 16" fill="none" xmlns="http://www.w3.org/2000/svg">
<g clip-path="url(#clip0_148_9691)">
<path d="M0.596614 11.4324C6.67714 9.70395 8.89964 13.1969 15.6491 11.4351C15.8996 11.3697 16.0496 11.1136 15.9843 10.8632C15.9189 10.6127 15.6628 10.4627 15.4123 10.528C14.0872 10.8739 12.9387 11.0019 11.8986 11.0033L10.5396 8.81301C11.3429 9.81117 12.8359 9.8687 13.7106 8.93851C14.0952 8.52957 14.2975 7.99532 14.2804 7.4342C14.2227 5.55314 11.918 4.7091 10.6487 6.05876C10.0372 6.70895 9.92633 7.63342 10.2706 8.37935L8.41108 5.38235L11.1705 4.58607C12.0275 4.33879 12.4325 3.35785 11.9971 2.57764C11.6809 2.01114 11.0247 1.74107 10.4015 1.92095L6.22389 3.12648C5.14074 3.43907 4.65568 4.6982 5.25043 5.65682L6.51311 7.69192C5.60289 8.25692 2.71593 10.0472 2.68527 10.0684C1.96061 10.145 1.18455 10.2907 0.340333 10.5307C0.0913327 10.6014 -0.0531673 10.8607 0.017614 11.1097C0.088364 11.3588 0.347708 11.5032 0.596614 11.4324ZM11.3316 6.70107C11.7728 6.23189 12.5094 6.2106 12.9772 6.65057C13.4459 7.09135 13.4686 7.82748 13.0277 8.29626C12.587 8.76488 11.8508 8.7876 11.3821 8.34676C10.9134 7.90595 10.8907 7.16982 11.3316 6.70107ZM7.5568 7.59601L6.04702 5.1626C5.78036 4.73282 5.99746 4.1676 6.48377 4.02726L10.6614 2.82173C10.8635 2.76335 11.076 2.85095 11.1784 3.03451C11.3198 3.28785 11.1877 3.60535 10.9106 3.68532L7.55649 4.65323C7.25796 4.73939 7.12461 5.0872 7.28814 5.35073L10.7658 10.9558C8.57874 10.7722 6.80164 10.1126 4.55146 10.0124L7.40564 8.24142C7.62561 8.10495 7.6933 7.81598 7.5568 7.59601Z" fill="#696969"/>
<path d="M15.4124 12.7156C8.9548 14.4013 6.68883 10.9135 0.340333 12.7182C0.0913327 12.789 -0.0531673 13.0483 0.017614 13.2973C0.0883952 13.5463 0.347739 13.6908 0.596676 13.62C6.67721 11.8915 8.89971 15.3845 15.6492 13.6227C15.8997 13.5573 16.0497 13.3012 15.9843 13.0507C15.919 12.8002 15.6629 12.6502 15.4124 12.7156Z" fill="#696969"/>
</g>
<defs>
<clipPath id="clip0_148_9691">
<rect width="16" height="16" fill="white"/>
</clipPath>
</defs>
</svg>
