<svg width="16" height="16" viewBox="0 0 16 16" fill="none" xmlns="http://www.w3.org/2000/svg">
<g clip-path="url(#clip0_148_9723)">
<path d="M7.99707 11.3218C7.23235 11.3218 6.61023 11.9419 6.61023 12.7037C6.61023 13.4658 7.23235 14.0861 7.99707 14.0861C8.76203 14.0861 9.38415 13.4658 9.38415 12.7037C9.38415 11.9419 8.76191 11.3218 7.99707 11.3218Z" fill="#696969"/>
<path d="M11.3807 9.43913C10.4778 8.53674 9.27592 8.03955 7.99697 8.03955C6.72295 8.03955 5.52439 8.53346 4.62175 9.43017C4.25719 9.79297 4.25655 10.384 4.62024 10.7475C4.7969 10.9244 5.03212 11.0216 5.28249 11.0216C5.53171 11.0216 5.76605 10.9249 5.94246 10.7495C6.49177 10.2036 7.22141 9.90288 7.99697 9.90288C8.77544 9.90288 9.5071 10.2055 10.0568 10.7547C10.2335 10.9311 10.4685 11.0285 10.7187 11.0285C10.9681 11.0285 11.2023 10.9318 11.3789 10.7564C11.744 10.3936 11.7446 9.80281 11.3807 9.43913Z" fill="#696969"/>
<path d="M15.7269 5.10666C13.6627 3.04752 10.9171 1.91382 7.99658 1.91382C5.07993 1.91382 2.33718 3.04487 0.273581 5.09912C-0.0909834 5.46192 -0.0912358 6.053 0.273077 6.41643C0.449617 6.59246 0.684458 6.68925 0.934316 6.68925C1.18405 6.68925 1.41864 6.59284 1.59518 6.41693C3.30569 4.71437 5.57902 3.77652 7.99658 3.77652C10.4177 3.77652 12.6933 4.71626 14.4042 6.42337C14.5807 6.59953 14.8159 6.6967 15.0657 6.6967C15.3153 6.6967 15.5498 6.59978 15.7263 6.42413C16.091 6.06104 16.0913 5.46975 15.7269 5.10666Z" fill="#696969"/>
<path d="M13.4992 7.32716C12.0299 5.8612 10.0759 5.05396 7.99731 5.05396C5.92248 5.05396 3.97145 5.85867 2.50335 7.31946C2.32655 7.49524 2.22926 7.72907 2.22888 7.97805C2.22888 8.22677 2.3258 8.46085 2.50234 8.63689C2.67888 8.81305 2.91385 8.91022 3.1637 8.91022C3.41318 8.91022 3.64777 8.8133 3.82456 8.6379C4.93984 7.5283 6.42182 6.91704 7.99731 6.91704C9.57608 6.91704 11.0601 7.53045 12.1761 8.64383C12.3529 8.82024 12.5877 8.91741 12.8377 8.91741C13.0873 8.91741 13.3221 8.8205 13.4983 8.64484C13.6749 8.46906 13.7724 8.23522 13.7726 7.98625C13.7728 7.73728 13.6756 7.50344 13.4992 7.32716Z" fill="#696969"/>
</g>
<defs>
<clipPath id="clip0_148_9723">
<rect width="16" height="16" fill="white"/>
</clipPath>
</defs>
</svg>
